<?xml version="1.0" standalone="no"?>
<!DOCTYPE svg PUBLIC "-//W3C//DTD SVG 20010904//EN"
 "http://www.w3.org/TR/2001/REC-SVG-20010904/DTD/svg10.dtd">
<svg version="1.0" xmlns="http://www.w3.org/2000/svg"
 width="360.000000pt" height="360.000000pt" viewBox="0 0 360.000000 360.000000"
 preserveAspectRatio="xMidYMid meet">

<g transform="translate(0.000000,360.000000) scale(0.100000,-0.100000)"
fill="#000000" stroke="none">
<path d="M1096 3204 c-14 -14 -16 -96 -16 -754 l0 -739 -263 -3 c-287 -3 -295
-5 -334 -65 -17 -25 -18 -69 -18 -598 0 -636 -2 -615 69 -649 33 -15 127 -16
1158 -13 1019 3 1129 4 1186 20 125 34 232 107 247 170 3 12 5 171 3 353 l-3
331 -28 36 c-33 44 -111 91 -184 113 l-53 15 0 883 c0 843 -1 884 -18 899 -17
16 -92 17 -875 17 -764 0 -857 -2 -871 -16z m1679 -916 l0 -848 -110 -5 c-109
-4 -174 -17 -249 -49 -34 -14 -92 -16 -457 -16 l-419 0 0 115 0 115 461 0
c298 0 467 4 480 10 21 12 26 54 7 67 -7 4 -242 11 -523 15 -280 4 -576 10
-657 13 l-148 6 0 708 c0 389 3 711 7 714 3 4 367 6 807 5 l801 -3 0 -847z
m-1321 -684 c3 -9 6 -262 6 -564 0 -450 -2 -550 -14 -559 -9 -8 -136 -10 -452
-9 l-439 3 -3 560 c-1 308 0 566 3 573 3 9 102 12 449 12 395 0 445 -2 450
-16z m1413 -268 c109 -29 183 -83 183 -134 0 -52 -92 -113 -209 -138 -144 -30
-336 -8 -437 51 -49 29 -64 51 -64 93 0 57 107 121 240 142 71 11 220 4 287
-14z m-602 -68 c-4 -13 -10 -67 -12 -120 l-5 -98 -354 0 -354 0 0 113 c0 63 3
117 7 120 3 4 168 7 366 7 l359 0 -7 -22z m260 -283 c150 -31 338 -13 462 44
l63 30 0 -38 c0 -50 -25 -81 -92 -113 -101 -48 -229 -66 -357 -48 -103 14
-174 40 -223 81 -33 26 -38 36 -38 73 l0 43 58 -29 c31 -15 89 -35 127 -43z
m-275 -130 l0 -115 -355 0 -355 0 0 115 0 115 355 0 355 0 0 -115z m255 -60
c150 -39 346 -24 474 35 35 17 65 30 67 30 2 0 4 -18 4 -39 0 -34 -6 -45 -41
-75 -63 -54 -143 -77 -284 -83 -131 -6 -220 9 -297 48 -64 33 -88 62 -88 108
l0 40 53 -24 c28 -13 79 -31 112 -40z m0 -195 c156 -40 365 -21 494 45 l51 25
0 -38 c0 -51 -25 -81 -92 -114 -79 -38 -151 -51 -271 -50 -119 2 -210 21 -274
58 -54 31 -73 59 -73 106 l0 37 44 -25 c23 -13 78 -33 121 -44z m-255 25 c0
-39 26 -94 61 -126 l31 -29 -401 0 -401 0 0 90 0 90 355 0 355 0 0 -25z"/>
<path d="M1948 2989 c-12 -7 -18 -22 -18 -49 0 -36 -3 -40 -43 -58 -99 -44
-143 -159 -98 -257 32 -71 113 -125 189 -125 88 0 145 -116 90 -185 -38 -49
-105 -63 -158 -35 -28 15 -43 39 -55 88 -11 42 -15 47 -43 50 -27 3 -32 -1
-38 -23 -17 -67 32 -152 106 -187 44 -21 49 -26 52 -62 6 -77 70 -75 76 2 3
33 7 41 27 46 65 16 134 114 135 189 0 99 -89 197 -180 197 -39 0 -90 21 -113
48 -23 26 -32 88 -18 124 22 58 110 85 171 53 34 -17 51 -45 59 -94 10 -60 71
-69 79 -11 11 70 -39 148 -115 182 -40 18 -43 22 -43 58 0 29 -5 42 -19 50
-23 12 -22 12 -43 -1z"/>
<path d="M1649 1998 c-21 -8 -26 -47 -7 -66 17 -17 639 -17 656 0 18 18 15 59
-5 64 -31 8 -623 9 -644 2z"/>
<path d="M632 1528 c-8 -8 -12 -53 -12 -135 0 -111 2 -123 19 -133 13 -6 147
-10 369 -10 325 0 350 1 365 18 14 15 17 41 17 133 0 76 -4 119 -12 127 -17
17 -729 17 -746 0z m676 -130 l-3 -63 -300 0 -300 0 -3 63 -3 62 306 0 306 0
-3 -62z"/>
<path d="M604 1137 c-2 -7 -3 -60 -2 -118 l3 -104 104 -3 c77 -2 107 1 113 10
13 21 10 202 -4 216 -18 18 -207 16 -214 -1z m146 -107 c0 -39 -1 -40 -35 -40
-34 0 -35 1 -35 40 0 39 1 40 35 40 34 0 35 -1 35 -40z"/>
<path d="M894 1137 c-2 -7 -3 -60 -2 -118 l3 -104 99 -3 c64 -2 103 1 112 9
18 15 20 199 2 217 -18 18 -207 16 -214 -1z m146 -107 c0 -39 -1 -40 -35 -40
-34 0 -35 1 -35 40 0 39 1 40 35 40 34 0 35 -1 35 -40z"/>
<path d="M1180 1131 c-5 -11 -10 -56 -10 -101 0 -119 1 -120 118 -120 63 0
102 4 110 12 16 16 16 200 0 216 -8 8 -47 12 -110 12 -86 0 -98 -2 -108 -19z
m150 -101 c0 -39 -1 -40 -35 -40 -34 0 -35 1 -35 40 0 39 1 40 35 40 34 0 35
-1 35 -40z"/>
<path d="M607 803 c-13 -12 -8 -208 5 -221 16 -16 190 -16 206 0 13 13 17 183
6 212 -5 13 -24 16 -108 16 -57 0 -106 -3 -109 -7z m143 -113 c0 -39 -1 -40
-35 -40 -34 0 -35 1 -35 40 0 39 1 40 35 40 34 0 35 -1 35 -40z"/>
<path d="M897 803 c-13 -12 -8 -208 5 -221 16 -16 190 -16 206 0 13 13 17 183
6 212 -5 13 -24 16 -108 16 -57 0 -106 -3 -109 -7z m143 -113 c0 -39 -1 -40
-35 -40 -34 0 -35 1 -35 40 0 39 1 40 35 40 34 0 35 -1 35 -40z"/>
<path d="M1179 789 c-17 -32 -8 -197 11 -209 22 -14 194 -12 208 2 16 16 16
200 0 216 -8 8 -47 12 -110 12 -89 0 -98 -2 -109 -21z m151 -99 c0 -39 -1 -40
-35 -40 -34 0 -35 1 -35 40 0 39 1 40 35 40 34 0 35 -1 35 -40z"/>
</g>
</svg>
